<?xml version="1.0" encoding="UTF-8" standalone="no"?>
<svg
   xmlns:dc="http://purl.org/dc/elements/1.1/"
   xmlns:cc="http://creativecommons.org/ns#"
   xmlns:rdf="http://www.w3.org/1999/02/22-rdf-syntax-ns#"
   xmlns:svg="http://www.w3.org/2000/svg"
   xmlns="http://www.w3.org/2000/svg"
   xmlns:sodipodi="http://sodipodi.sourceforge.net/DTD/sodipodi-0.dtd"
   xmlns:inkscape="http://www.inkscape.org/namespaces/inkscape"
   width="210mm"
   height="297mm"
   viewBox="0 0 210 297"
   version="1.1"
   id="svg1477"
   inkscape:version="1.0.2-2 (e86c870879, 2021-01-15)"
   sodipodi:docname="rot_gruen.svg">
  <defs
     id="defs1471">
    <clipPath
       clipPathUnits="userSpaceOnUse"
       id="clipPath1459">
      <path
         style="fill:#000000;stroke:#000000;stroke-width:0.264583px;stroke-linecap:butt;stroke-linejoin:miter;stroke-opacity:1"
         d="m 109.61309,131.77195 -0.44192,-5.70675 -1.19991,-3.61273 1.33473,-2.27967 -1.59459,-3.99237 1.65365,-2.4096 -1.48828,-0.85044 -0.86226,-2.59859 -0.92132,-1.19299 1.34924,-0.3592 2.24188,-0.005 -2.5635,-4.50182 1.2993,-0.60239 -2.95294,-3.720711 3.17736,-5.386162 -2.05525,-3.472657 2.44504,-4.960937 -3.77976,-3.496278 1.83082,-6.496466 -3.36635,0.377976 3.06532,-6.449568 0.14016,-1.47561 -9.595639,-6.780583 -26.458333,9.071427 c 0,0 -15.875,27.78125 -13.985119,30.238099 1.889882,2.45684 9.827382,19.46577 12.284226,22.48958 2.456847,3.0238 26.080358,8.88243 26.080358,8.88243 z"
         id="path1461" />
    </clipPath>
    <inkscape:path-effect
       effect="bspline"
       id="path-effect1449"
       is_visible="true"
       lpeversion="1"
       weight="33.333333"
       steps="2"
       helper_size="0"
       apply_no_weight="true"
       apply_with_weight="true"
       only_selected="false" />
    <inkscape:path-effect
       effect="bspline"
       id="path-effect1451"
       is_visible="true"
       lpeversion="1"
       weight="33.333333"
       steps="2"
       helper_size="0"
       apply_no_weight="true"
       apply_with_weight="true"
       only_selected="false" />
    <filter
       inkscape:collect="always"
       style="color-interpolation-filters:sRGB"
       id="filter1937-1"
       x="-0.39949939"
       width="1.7989988"
       y="-0.29219979"
       height="1.5843996">
      <feGaussianBlur
         inkscape:collect="always"
         stdDeviation="1.9458268"
         id="feGaussianBlur1939-3" />
    </filter>
    <inkscape:path-effect
       effect="bspline"
       id="path-effect1453"
       is_visible="true"
       lpeversion="1"
       weight="33.333333"
       steps="2"
       helper_size="0"
       apply_no_weight="true"
       apply_with_weight="true"
       only_selected="false" />
    <filter
       inkscape:collect="always"
       style="color-interpolation-filters:sRGB"
       id="filter2920-1"
       x="-0.094014004"
       width="1.188028"
       y="-0.061723948"
       height="1.1234479">
      <feGaussianBlur
         inkscape:collect="always"
         stdDeviation="0.28100055"
         id="feGaussianBlur2922-0" />
    </filter>
    <inkscape:path-effect
       effect="bspline"
       id="path-effect1455"
       is_visible="true"
       lpeversion="1"
       weight="33.333333"
       steps="2"
       helper_size="0"
       apply_no_weight="true"
       apply_with_weight="true"
       only_selected="false" />
    <clipPath
       clipPathUnits="userSpaceOnUse"
       id="clipPath1028">
      <path
         style="fill:#000000;stroke:#000000;stroke-width:0.264583px;stroke-linecap:butt;stroke-linejoin:miter;stroke-opacity:1"
         d="m 111.05049,130.96177 -1.87932,-4.89687 -1.19991,-3.61273 1.33473,-2.27967 -1.59459,-3.99237 1.65365,-2.4096 -1.48828,-0.85044 -0.86226,-2.59859 -0.92132,-1.19299 1.34924,-0.3592 2.24188,-0.005 -2.5635,-4.50182 1.2993,-0.60239 -2.95294,-3.72071 3.17736,-5.386162 -2.05525,-3.472657 2.44504,-4.960937 -3.77976,-3.496278 1.83082,-6.496466 -3.36635,0.377976 3.06532,-6.449568 2.04446,-5.359371 17.50973,-0.487225 14.59933,7.276042 c 0,0 3.07106,22.678573 3.07106,22.206101 0,-0.472469 -1.6064,23.812495 -1.6064,23.812495 l -10.11087,13.32366 -15.59151,1.70089 z"
         id="path1030" />
    </clipPath>
    <inkscape:path-effect
       effect="bspline"
       id="path-effect935"
       is_visible="true"
       lpeversion="1"
       weight="33.333333"
       steps="2"
       helper_size="0"
       apply_no_weight="true"
       apply_with_weight="true"
       only_selected="false" />
    <inkscape:path-effect
       effect="bspline"
       id="path-effect861"
       is_visible="true"
       lpeversion="1"
       weight="33.333333"
       steps="2"
       helper_size="0"
       apply_no_weight="true"
       apply_with_weight="true"
       only_selected="false" />
    <filter
       inkscape:collect="always"
       style="color-interpolation-filters:sRGB"
       id="filter1937"
       x="-0.39949939"
       width="1.7989988"
       y="-0.29219979"
       height="1.5843996">
      <feGaussianBlur
         inkscape:collect="always"
         stdDeviation="1.9458268"
         id="feGaussianBlur1939" />
    </filter>
    <inkscape:path-effect
       effect="bspline"
       id="path-effect939"
       is_visible="true"
       lpeversion="1"
       weight="33.333333"
       steps="2"
       helper_size="0"
       apply_no_weight="true"
       apply_with_weight="true"
       only_selected="false" />
    <filter
       inkscape:collect="always"
       style="color-interpolation-filters:sRGB"
       id="filter2920"
       x="-0.094014004"
       width="1.188028"
       y="-0.061723948"
       height="1.1234479">
      <feGaussianBlur
         inkscape:collect="always"
         stdDeviation="0.28100055"
         id="feGaussianBlur2922" />
    </filter>
    <inkscape:path-effect
       effect="bspline"
       id="path-effect2506"
       is_visible="true"
       lpeversion="1"
       weight="33.333333"
       steps="2"
       helper_size="0"
       apply_no_weight="true"
       apply_with_weight="true"
       only_selected="false" />
  </defs>
  <sodipodi:namedview
     id="base"
     pagecolor="#ffffff"
     bordercolor="#666666"
     borderopacity="1.0"
     inkscape:pageopacity="0.0"
     inkscape:pageshadow="2"
     inkscape:zoom="2.8"
     inkscape:cx="461.25583"
     inkscape:cy="770.02241"
     inkscape:document-units="mm"
     inkscape:current-layer="layer1"
     inkscape:document-rotation="0"
     showgrid="false"
     inkscape:window-width="1920"
     inkscape:window-height="1001"
     inkscape:window-x="-9"
     inkscape:window-y="-9"
     inkscape:window-maximized="1" />
  <metadata
     id="metadata1474">
    <rdf:RDF>
      <cc:Work
         rdf:about="">
        <dc:format>image/svg+xml</dc:format>
        <dc:type
           rdf:resource="http://purl.org/dc/dcmitype/StillImage" />
        <dc:title></dc:title>
      </cc:Work>
    </rdf:RDF>
  </metadata>
  <g
     inkscape:label="Layer 1"
     inkscape:groupmode="layer"
     id="layer1">
    <g
       id="g1447"
       clip-path="url(#clipPath1459)"
       transform="translate(14.026073,96.19053)">
      <g
         id="g1421"
         transform="translate(27.970238,-34.017857)"
         inkscape:export-xdpi="96"
         inkscape:export-ydpi="96">
        <circle
           style="display:inline;fill:#ff0000;fill-opacity:1;stroke:none;stroke-width:0.549296;stroke-miterlimit:4;stroke-dasharray:none;stroke-opacity:1"
           id="circle1407"
           cx="79.185341"
           cy="135.03249"
           r="24.757439" />
        <circle
           style="display:inline;fill:none;fill-opacity:1;stroke:#000000;stroke-width:1.049;stroke-miterlimit:4;stroke-dasharray:none;stroke-opacity:1"
           id="circle1409"
           cx="79.185341"
           cy="135.03249"
           r="24.757439" />
        <g
           id="g1419">
          <circle
             style="display:inline;fill:none;fill-opacity:1;stroke:#610000;stroke-width:1.684;stroke-miterlimit:4;stroke-dasharray:none;stroke-opacity:1"
             id="circle1411"
             cx="79.185341"
             cy="135.03249"
             r="23.653839" />
          <circle
             style="display:inline;fill:none;fill-opacity:1;stroke:#e50000;stroke-width:4.95;stroke-miterlimit:4;stroke-dasharray:none;stroke-opacity:1"
             id="circle1413"
             cx="79.185341"
             cy="135.03249"
             r="20.368984" />
          <circle
             style="display:inline;fill:none;fill-opacity:1;stroke:#ef0000;stroke-width:10.5164;stroke-miterlimit:4;stroke-dasharray:none;stroke-opacity:1"
             id="circle1415"
             cx="79.185341"
             cy="135.03249"
             r="13.304335" />
          <path
             style="fill:#3c0000;fill-opacity:0.431373;stroke:none;stroke-width:0.264583px;stroke-linecap:butt;stroke-linejoin:miter;stroke-opacity:1"
             d="m 99.151426,121.14004 c -0.0056,0.43445 -0.0167,1.30308 -0.517374,3.14451 -0.500672,1.84144 -1.490773,4.65563 -2.309915,6.4765 -0.819142,1.82087 -1.467255,2.64833 -1.646939,3.78227 -0.179684,1.13394 0.109004,2.57398 -0.664572,5.099 -0.773576,2.52502 -2.609282,6.13515 -5.611845,8.892 -3.002562,2.75686 -7.171852,4.66037 -10.36777,5.69876 -3.195919,1.03838 -5.418269,1.21148 -6.652106,1.66005 -1.233838,0.44857 -1.47883,1.17241 -1.500942,1.63462 -0.02211,0.46221 0.178334,0.66266 0.696204,0.8853 0.517869,0.22264 1.353068,0.46764 2.5892,0.72375 1.236132,0.25612 2.873121,0.52338 4.287412,0.62914 1.414291,0.10577 2.605842,0.0501 3.814131,-0.0334 1.208289,-0.0835 2.433248,-0.19489 3.942179,-0.56797 1.508931,-0.37309 3.301833,-1.00785 5.039055,-1.89318 1.737223,-0.88534 3.418755,-2.0212 4.560197,-2.88982 1.141443,-0.86861 1.742788,-1.46996 2.605839,-2.52232 0.863052,-1.05237 1.987788,-2.55573 2.85084,-3.98114 0.86305,-1.42541 1.4644,-2.77287 1.93769,-3.85866 0.47329,-1.08578 0.81851,-1.90985 1.1025,-2.96777 0.28398,-1.05791 0.5067,-2.34968 0.59024,-3.75283 0.0836,-1.40315 0.0279,-2.91765 -0.13916,-4.54911 -0.16703,-1.63145 -0.44543,-3.37982 -0.7238,-4.63821 -0.27838,-1.25839 -0.55678,-2.02678 -0.88525,-2.67269 -0.32847,-0.64591 -0.7071,-1.1693 -1.11917,-1.88759 -0.41208,-0.71829 -0.85752,-1.63145 -1.174828,-2.13822 -0.31731,-0.50678 -0.506607,-0.607 -0.601422,-0.65719 -0.09482,-0.0502 -0.09483,-0.0502 -0.100394,0.38424 z"
             id="path1417"
             inkscape:path-effect="#path-effect1449"
             inkscape:original-d="m 99.156994,120.7056 c -0.0109,0.86889 -0.022,1.73752 -0.0334,2.60588 -0.9899,2.81462 -1.98,5.62881 -2.97042,8.4429 -0.64789,0.82777 -1.296,1.65523 -1.94442,2.48248 0.28896,1.44036 0.57765,2.8804 0.86608,4.3202 -1.83547,3.61044 -3.67117,7.22057 -5.50721,10.83056 -4.16926,1.90388 -8.33855,3.80739 -12.50835,5.71075 -2.22216,0.17337 -4.44451,0.34647 -6.667152,0.51931 -0.24474,0.72413 -0.48973,1.44797 -0.734991,2.17156 0.200721,0.20072 0.401166,0.40117 0.601355,0.60136 0.835499,0.24527 1.670698,0.49026 2.505648,0.73499 1.63733,0.26754 3.27432,0.5348 4.91108,0.80181 1.19187,-0.0554 2.38342,-0.1111 3.57473,-0.16704 1.22528,-0.11111 2.45024,-0.22246 3.67496,-0.33409 1.79323,-0.63451 3.58613,-1.26927 5.3788,-1.9043 1.68187,-1.13565 3.3634,-2.27152 5.04471,-3.40768 0.60163,-0.60111 1.20298,-1.20245 1.80407,-1.80407 1.12504,-1.50316 2.24978,-3.00652 3.374276,-4.51018 0.60163,-1.34724 1.20297,-2.6947 1.80407,-4.04245 0.34549,-0.82383 0.69071,-1.6479 1.03567,-2.47224 0.22299,-1.29157 0.44571,-2.58334 0.66817,-3.87541 -0.0554,-1.51429 -0.1111,-3.02879 -0.16705,-4.54358 -0.27814,-1.74815 -0.55654,-3.49651 -0.83521,-5.24516 -0.27815,-0.76815 -0.55655,-1.53654 -0.83522,-2.3052 -0.37837,-0.52315 -0.757,-1.04654 -1.1359,-1.57021 -0.44519,-0.91292 -0.89063,-1.82608 -1.336336,-2.73951 -0.18906,-0.1 -0.37837,-0.20019 -0.56795,-0.30068 z"
             sodipodi:nodetypes="scccccccccccccccccccccccccss" />
        </g>
      </g>
      <g
         id="g1441"
         inkscape:export-xdpi="96"
         inkscape:export-ydpi="96">
        <circle
           style="display:inline;opacity:0.995;fill:#ff0000;stroke:none;stroke-width:1.8;stroke-miterlimit:4;stroke-dasharray:none;stroke-opacity:1"
           id="circle1423"
           cx="107.44235"
           cy="89.535286"
           r="18.441597" />
        <circle
           style="display:inline;opacity:0.995;fill:none;stroke:#9f0000;stroke-width:1;stroke-miterlimit:4;stroke-dasharray:none;stroke-opacity:1"
           id="circle1425"
           cx="107.44235"
           cy="89.535286"
           r="18.441597" />
        <circle
           style="display:inline;opacity:0.875;fill:none;stroke:#a50000;stroke-width:2.08106;stroke-miterlimit:4;stroke-dasharray:none;stroke-opacity:1"
           id="circle1427"
           cx="107.44235"
           cy="89.535286"
           r="17.031252" />
        <circle
           style="display:inline;opacity:0.875;fill:none;stroke:#e50000;stroke-width:4.243;stroke-miterlimit:4;stroke-dasharray:none;stroke-opacity:1"
           id="circle1429"
           cx="107.44235"
           cy="89.535286"
           r="15.079176" />
        <circle
           style="display:inline;opacity:0.875;fill:none;stroke:#f10000;stroke-width:3.98256;stroke-miterlimit:4;stroke-dasharray:none;stroke-opacity:1"
           id="circle1431"
           cx="107.44235"
           cy="89.535286"
           r="11.049186" />
        <circle
           style="display:inline;opacity:0.875;fill:none;stroke:#f70000;stroke-width:3.81244;stroke-miterlimit:4;stroke-dasharray:none;stroke-opacity:1"
           id="circle1433"
           cx="107.44235"
           cy="89.535286"
           r="7.8254266" />
        <path
           style="opacity:1;fill:#610000;fill-opacity:1;stroke:none;stroke-width:0.264583px;stroke-linecap:butt;stroke-linejoin:miter;stroke-opacity:1"
           d="m 114.82345,73.154121 c 1.87422,0.06943 4.52076,0.741381 6.64525,3.277648 2.12449,2.536268 3.72709,6.936466 3.81168,10.219559 0.0846,3.283092 -1.34867,5.44919 -2.51938,6.418587 -1.17072,0.969397 -2.07918,0.742022 -2.50319,0.293091 -0.424,-0.448932 -0.36319,-1.119519 -0.19967,-2.201222 0.16352,-1.081704 0.42973,-2.57437 0.35062,-4.686508 -0.0791,-2.112139 -0.50363,-4.843545 -2.17158,-7.000847 -1.66795,-2.157302 -4.57948,-3.740175 -5.48455,-4.798355 -0.90506,-1.058179 0.19661,-1.591386 2.07082,-1.521953 z"
           id="path1435"
           inkscape:path-effect="#path-effect1451"
           inkscape:original-d="m 114.05081,72.551527 c 2.64681,0.672213 5.29335,1.34416 7.9396,2.015836 1.60295,4.40061 3.20556,8.800806 4.8079,13.20085 -1.43302,2.166415 -2.86629,4.332509 -4.29986,6.498402 -0.90821,-0.227146 -1.81667,-0.45452 -2.72544,-0.68214 0.0611,-0.670374 0.12193,-1.340959 0.18245,-2.011794 0.2665,-1.492547 0.53271,-2.985213 0.79868,-4.478269 -0.42428,-2.731308 -0.84879,-5.462715 -1.27359,-8.194526 -2.91137,-1.582665 -5.8229,-3.165541 -8.73478,-4.748723 1.10195,-0.532951 2.20362,-1.066157 3.30504,-1.599636 z"
           sodipodi:nodetypes="cccccccccc" />
        <circle
           style="display:inline;opacity:0.995;fill:none;stroke:#000000;stroke-width:0.919;stroke-miterlimit:4;stroke-dasharray:none;stroke-opacity:1"
           id="circle1437"
           cx="107.44235"
           cy="89.535286"
           r="19.234344" />
        <ellipse
           style="opacity:1;fill:#ffd3d3;fill-opacity:1;stroke:none;stroke-width:0.303245;stroke-miterlimit:4;stroke-dasharray:none;stroke-opacity:1"
           id="ellipse1439"
           cx="98.666603"
           cy="94.882912"
           rx="1.8144982"
           ry="1.8616279" />
      </g>
      <path
         style="opacity:1;fill:#fffbfb;fill-opacity:0.431373;stroke:none;stroke-width:0.264583px;stroke-linecap:butt;stroke-linejoin:miter;stroke-opacity:1;filter:url(#filter1937-1)"
         d="m 101.21291,87.268197 c -0.4453,-0.278309 -1.336193,-0.835121 -2.01444,-1.236365 -0.678247,-0.401244 -1.143832,-0.646883 -1.498686,-0.832705 -0.354855,-0.185821 -0.59896,-0.311811 -0.819505,-0.355222 -0.220544,-0.04341 -0.417402,-0.004 -0.594709,0.232294 -0.177306,0.236333 -0.334795,0.669424 -0.531658,1.29153 -0.196863,0.622105 -0.433093,1.433162 -0.633887,2.374201 -0.200793,0.941039 -0.366154,2.011949 -0.452759,3.071101 -0.0866,1.059152 -0.09448,2.106442 -0.07478,2.976591 0.0197,0.87015 0.06694,1.56309 0.177206,2.358436 0.110265,0.795347 0.2835,1.693016 0.559211,2.338712 0.275711,0.6457 0.653681,1.03941 1.582886,1.22039 0.929205,0.18097 2.409585,0.14947 3.826911,-0.29546 1.41734,-0.444941 2.77171,-1.303246 3.68511,-2.118204 0.91339,-0.814959 1.38585,-1.58664 1.64178,-2.161404 0.25593,-0.574763 0.29531,-0.952736 0.004,-1.460632 -0.29122,-0.507895 -0.91329,-1.145713 -1.44879,-1.779601 -0.53549,-0.633887 -0.98433,-1.263837 -1.38597,-1.964669 -0.40164,-0.700831 -0.75598,-1.472516 -1.01087,-2.04773 -0.25489,-0.575214 -0.41031,-0.953927 -0.48807,-1.143445 -0.0778,-0.189519 -0.0778,-0.189509 -0.52306,-0.467818 z"
         id="path1443"
         inkscape:path-effect="#path-effect1453"
         inkscape:original-d="m 101.6582,87.546506 c -0.89063,-0.556548 -1.781528,-1.113358 -2.67269,-1.670436 -0.465338,-0.245385 -0.930923,-0.491024 -1.396783,-0.736933 -0.24385,-0.12573 -0.487955,-0.25172 -0.732329,-0.377976 -0.196602,0.03964 -0.39346,0.07901 -0.590587,0.118118 -0.157229,0.433369 -0.314717,0.86646 -0.472472,1.299292 -0.235974,0.811355 -0.472205,1.622412 -0.708705,2.433222 -0.165103,1.071222 -0.330465,2.142132 -0.496094,3.212802 -0.0076,1.04759 -0.01548,2.09488 -0.02363,3.14193 0.04751,0.69323 0.09476,1.38617 0.14174,2.07886 0.173508,0.89798 0.346741,1.79565 0.519718,2.69308 0.378248,0.393995 0.756216,0.787715 1.133928,1.181175 1.4807,-0.0312 2.961079,-0.0627 4.441224,-0.0945 1.3547,-0.858075 2.70909,-1.716375 4.06324,-2.574965 0.47274,-0.77145 0.9452,-1.54313 1.41741,-2.3151 0.0396,-0.37772 0.079,-0.75569 0.11812,-1.13393 -0.62184,-0.63758 -1.24391,-1.2754 -1.86626,-1.9135 -0.44859,-0.62971 -0.89743,-1.25966 -1.34654,-1.88988 -0.3541,-0.77146 -0.70844,-1.543147 -1.06306,-2.315111 -0.15515,-0.378462 -0.31056,-0.757174 -0.46623,-1.136158 z"
         transform="rotate(-15.220755,99.90714,102.10794)"
         inkscape:export-xdpi="96"
         inkscape:export-ydpi="96" />
      <path
         style="opacity:1;fill:#ffffff;fill-opacity:1;stroke:none;stroke-width:0.264583px;stroke-linecap:butt;stroke-linejoin:miter;stroke-opacity:1;filter:url(#filter2920-1)"
         d="m 88.007389,110.42123 c -0.930961,1.42854 -0.505736,2.24749 0.01402,3.04281 0.519758,0.79532 1.133954,1.56701 1.63571,1.59076 0.501756,0.0238 0.891317,-0.70022 1.504981,-1.7948 0.613663,-1.09458 1.451357,-2.55964 2.03138,-3.84554 0.580024,-1.2859 0.902363,-2.39277 1.224658,-3.49948 -0.301742,-0.33264 -0.603226,-0.665 -1.897886,0.18746 -1.294659,0.85246 -3.581905,2.89024 -4.512865,4.31879 z"
         id="path1445"
         inkscape:path-effect="#path-effect1455"
         inkscape:original-d="m 86.651041,111.03051 c 0.425487,0.81921 0.850712,1.63816 1.27567,2.45684 0.614486,0.77199 1.228688,1.54367 1.842635,2.31511 0.389848,-0.72374 0.779407,-1.44771 1.168725,-2.17198 0.838009,-1.46488 1.675703,-2.92994 2.513184,-4.39536 0.322566,-1.10647 0.966885,-3.32014 0.966885,-3.32014 0,0 -0.603212,-0.66501 -0.905225,-0.99792 -2.287073,2.03812 -4.574315,4.0759 -6.861874,6.11345 z"
         sodipodi:nodetypes="cccccccc"
         inkscape:export-xdpi="96"
         inkscape:export-ydpi="96" />
    </g>
    <g
       id="g5385"
       clip-path="url(#clipPath1028)"
       transform="translate(14.026073,96.19053)">
      <circle
         style="display:inline;fill:#ff0000;fill-opacity:1;stroke:none;stroke-width:0.549296;stroke-miterlimit:4;stroke-dasharray:none;stroke-opacity:1"
         id="path869"
         cx="107.15558"
         cy="101.01463"
         r="24.757439" />
      <circle
         style="display:inline;fill:none;fill-opacity:1;stroke:#000000;stroke-width:1.049;stroke-miterlimit:4;stroke-dasharray:none;stroke-opacity:1"
         id="circle886"
         cx="107.15558"
         cy="101.01463"
         r="24.757439" />
      <circle
         style="display:inline;fill:none;fill-opacity:1;stroke:#003a00;stroke-width:1.684;stroke-miterlimit:4;stroke-dasharray:none;stroke-opacity:1"
         id="circle888"
         cx="79.185341"
         cy="135.03249"
         r="23.653839"
         transform="translate(27.970239,-34.017858)" />
      <circle
         style="display:inline;fill:none;fill-opacity:1;stroke:#005c00;stroke-width:4.95;stroke-miterlimit:4;stroke-dasharray:none;stroke-opacity:1"
         id="circle1949"
         cx="79.185341"
         cy="135.03249"
         r="20.368984"
         transform="translate(27.970239,-34.017858)" />
      <circle
         style="display:inline;fill:none;fill-opacity:1;stroke:#007700;stroke-width:10.5164;stroke-miterlimit:4;stroke-dasharray:none;stroke-opacity:1"
         id="circle1951"
         cx="79.185341"
         cy="135.03249"
         r="13.304335"
         transform="translate(27.970239,-34.017858)" />
      <path
         style="fill:#001000;fill-opacity:0.431373;stroke:none;stroke-width:0.264583px;stroke-linecap:butt;stroke-linejoin:miter;stroke-opacity:1"
         d="m 99.151426,121.14004 c -0.0056,0.43445 -0.0167,1.30308 -0.517374,3.14451 -0.500672,1.84144 -1.490773,4.65563 -2.309915,6.4765 -0.819142,1.82087 -1.467255,2.64833 -1.646939,3.78227 -0.179684,1.13394 0.109004,2.57398 -0.664572,5.099 -0.773576,2.52502 -2.609282,6.13515 -5.611845,8.892 -3.002562,2.75686 -7.171852,4.66037 -10.36777,5.69876 -3.195919,1.03838 -5.418269,1.21148 -6.652106,1.66005 -1.233838,0.44857 -1.47883,1.17241 -1.500942,1.63462 -0.02211,0.46221 0.178334,0.66266 0.696204,0.8853 0.517869,0.22264 1.353068,0.46764 2.5892,0.72375 1.236132,0.25612 2.873121,0.52338 4.287412,0.62914 1.414291,0.10577 2.605842,0.0501 3.814131,-0.0334 1.208289,-0.0835 2.433248,-0.19489 3.942179,-0.56797 1.508931,-0.37309 3.301833,-1.00785 5.039055,-1.89318 1.737223,-0.88534 3.418755,-2.0212 4.560197,-2.88982 1.141443,-0.86861 1.742788,-1.46996 2.605839,-2.52232 0.863052,-1.05237 1.987788,-2.55573 2.85084,-3.98114 0.86305,-1.42541 1.4644,-2.77287 1.93769,-3.85866 0.47329,-1.08578 0.81851,-1.90985 1.1025,-2.96777 0.28398,-1.05791 0.5067,-2.34968 0.59024,-3.75283 0.0836,-1.40315 0.0279,-2.91765 -0.13916,-4.54911 -0.16703,-1.63145 -0.44543,-3.37982 -0.7238,-4.63821 -0.27838,-1.25839 -0.55678,-2.02678 -0.88525,-2.67269 -0.32847,-0.64591 -0.7071,-1.1693 -1.11917,-1.88759 -0.41208,-0.71829 -0.85752,-1.63145 -1.174828,-2.13822 -0.31731,-0.50678 -0.506607,-0.607 -0.601422,-0.65719 -0.09482,-0.0502 -0.09483,-0.0502 -0.100394,0.38424 z"
         id="path933"
         inkscape:path-effect="#path-effect935"
         inkscape:original-d="m 99.156994,120.7056 c -0.0109,0.86889 -0.022,1.73752 -0.0334,2.60588 -0.9899,2.81462 -1.98,5.62881 -2.97042,8.4429 -0.64789,0.82777 -1.296,1.65523 -1.94442,2.48248 0.28896,1.44036 0.57765,2.8804 0.86608,4.3202 -1.83547,3.61044 -3.67117,7.22057 -5.50721,10.83056 -4.16926,1.90388 -8.33855,3.80739 -12.50835,5.71075 -2.22216,0.17337 -4.44451,0.34647 -6.667152,0.51931 -0.24474,0.72413 -0.48973,1.44797 -0.734991,2.17156 0.200721,0.20072 0.401166,0.40117 0.601355,0.60136 0.835499,0.24527 1.670698,0.49026 2.505648,0.73499 1.63733,0.26754 3.27432,0.5348 4.91108,0.80181 1.19187,-0.0554 2.38342,-0.1111 3.57473,-0.16704 1.22528,-0.11111 2.45024,-0.22246 3.67496,-0.33409 1.79323,-0.63451 3.58613,-1.26927 5.3788,-1.9043 1.68187,-1.13565 3.3634,-2.27152 5.04471,-3.40768 0.60163,-0.60111 1.20298,-1.20245 1.80407,-1.80407 1.12504,-1.50316 2.24978,-3.00652 3.374276,-4.51018 0.60163,-1.34724 1.20297,-2.6947 1.80407,-4.04245 0.34549,-0.82383 0.69071,-1.6479 1.03567,-2.47224 0.22299,-1.29157 0.44571,-2.58334 0.66817,-3.87541 -0.0554,-1.51429 -0.1111,-3.02879 -0.16705,-4.54358 -0.27814,-1.74815 -0.55654,-3.49651 -0.83521,-5.24516 -0.27815,-0.76815 -0.55655,-1.53654 -0.83522,-2.3052 -0.37837,-0.52315 -0.757,-1.04654 -1.1359,-1.57021 -0.44519,-0.91292 -0.89063,-1.82608 -1.336336,-2.73951 -0.18906,-0.1 -0.37837,-0.20019 -0.56795,-0.30068 z"
         sodipodi:nodetypes="scccccccccccccccccccccccccss"
         transform="translate(27.970239,-34.017858)" />
      <circle
         style="display:inline;opacity:0.995;fill:#00eb00;fill-opacity:1;stroke:none;stroke-width:1.8;stroke-miterlimit:4;stroke-dasharray:none;stroke-opacity:1"
         id="path833"
         cx="107.44235"
         cy="89.535286"
         r="18.441597" />
      <circle
         style="display:inline;opacity:0.995;fill:none;stroke:#003e00;stroke-width:1;stroke-miterlimit:4;stroke-dasharray:none;stroke-opacity:1"
         id="circle844"
         cx="107.44235"
         cy="89.535286"
         r="18.441597" />
      <circle
         style="display:inline;opacity:0.875;fill:none;stroke:#005b00;stroke-width:2.08106;stroke-miterlimit:4;stroke-dasharray:none;stroke-opacity:1"
         id="circle846"
         cx="107.44235"
         cy="89.535286"
         r="17.031252" />
      <circle
         style="display:inline;opacity:0.875;fill:none;stroke:#007800;stroke-width:3.124;stroke-miterlimit:4;stroke-dasharray:none;stroke-opacity:1"
         id="circle848"
         cx="107.44235"
         cy="89.535286"
         r="14.470408" />
      <circle
         style="display:inline;opacity:0.875;fill:none;stroke:#00a900;stroke-width:3.98256;stroke-miterlimit:4;stroke-dasharray:none;stroke-opacity:1"
         id="circle850"
         cx="107.44235"
         cy="89.535286"
         r="11.049186" />
      <circle
         style="display:inline;opacity:0.875;fill:none;stroke:#00da00;stroke-width:3.81244;stroke-miterlimit:4;stroke-dasharray:none;stroke-opacity:1"
         id="circle852"
         cx="107.44235"
         cy="89.535286"
         r="7.8254266" />
      <path
         style="display:inline;fill:#002f00;fill-opacity:1;stroke:none;stroke-width:0.264583px;stroke-linecap:butt;stroke-linejoin:miter;stroke-opacity:1"
         d="m 114.82345,73.154121 c 1.87422,0.06943 4.52076,0.741381 6.64525,3.277648 2.12449,2.536268 3.72709,6.936466 3.81168,10.219559 0.0846,3.283092 -1.34867,5.44919 -2.51938,6.418587 -1.17072,0.969397 -2.07918,0.742022 -2.50319,0.293091 -0.424,-0.448932 -0.36319,-1.119519 -0.19967,-2.201222 0.16352,-1.081704 0.42973,-2.57437 0.35062,-4.686508 -0.0791,-2.112139 -0.50363,-4.843545 -2.17158,-7.000847 -1.66795,-2.157302 -4.57948,-3.740175 -5.48455,-4.798355 -0.90506,-1.058179 0.19661,-1.591386 2.07082,-1.521953 z"
         id="path859"
         inkscape:path-effect="#path-effect861"
         inkscape:original-d="m 114.05081,72.551527 c 2.64681,0.672213 5.29335,1.34416 7.9396,2.015836 1.60295,4.40061 3.20556,8.800806 4.8079,13.20085 -1.43302,2.166415 -2.86629,4.332509 -4.29986,6.498402 -0.90821,-0.227146 -1.81667,-0.45452 -2.72544,-0.68214 0.0611,-0.670374 0.12193,-1.340959 0.18245,-2.011794 0.2665,-1.492547 0.53271,-2.985213 0.79868,-4.478269 -0.42428,-2.731308 -0.84879,-5.462715 -1.27359,-8.194526 -2.91137,-1.582665 -5.8229,-3.165541 -8.73478,-4.748723 1.10195,-0.532951 2.20362,-1.066157 3.30504,-1.599636 z"
         sodipodi:nodetypes="cccccccccc" />
      <circle
         style="display:inline;opacity:0.995;fill:none;stroke:#000000;stroke-width:0.919;stroke-miterlimit:4;stroke-dasharray:none;stroke-opacity:1"
         id="circle854"
         cx="107.44235"
         cy="89.535286"
         r="19.234344" />
      <ellipse
         style="fill:#ffd3d3;fill-opacity:1;stroke:none;stroke-width:0.303245;stroke-miterlimit:4;stroke-dasharray:none;stroke-opacity:1"
         id="path863"
         cx="98.666603"
         cy="94.882912"
         rx="1.8144982"
         ry="1.8616279" />
      <path
         style="opacity:1;fill:#fffbfb;fill-opacity:0.431373;stroke:none;stroke-width:0.264583px;stroke-linecap:butt;stroke-linejoin:miter;stroke-opacity:1;filter:url(#filter1937)"
         d="m 101.21291,87.268197 c -0.4453,-0.278309 -1.336193,-0.835121 -2.01444,-1.236365 -0.678247,-0.401244 -1.143832,-0.646883 -1.498686,-0.832705 -0.354855,-0.185821 -0.59896,-0.311811 -0.819505,-0.355222 -0.220544,-0.04341 -0.417402,-0.004 -0.594709,0.232294 -0.177306,0.236333 -0.334795,0.669424 -0.531658,1.29153 -0.196863,0.622105 -0.433093,1.433162 -0.633887,2.374201 -0.200793,0.941039 -0.366154,2.011949 -0.452759,3.071101 -0.0866,1.059152 -0.09448,2.106442 -0.07478,2.976591 0.0197,0.87015 0.06694,1.56309 0.177206,2.358436 0.110265,0.795347 0.2835,1.693016 0.559211,2.338712 0.275711,0.6457 0.653681,1.03941 1.582886,1.22039 0.929205,0.18097 2.409585,0.14947 3.826911,-0.29546 1.41734,-0.444941 2.77171,-1.303246 3.68511,-2.118204 0.91339,-0.814959 1.38585,-1.58664 1.64178,-2.161404 0.25593,-0.574763 0.29531,-0.952736 0.004,-1.460632 -0.29122,-0.507895 -0.91329,-1.145713 -1.44879,-1.779601 -0.53549,-0.633887 -0.98433,-1.263837 -1.38597,-1.964669 -0.40164,-0.700831 -0.75598,-1.472516 -1.01087,-2.04773 -0.25489,-0.575214 -0.41031,-0.953927 -0.48807,-1.143445 -0.0778,-0.189519 -0.0778,-0.189509 -0.52306,-0.467818 z"
         id="path937"
         inkscape:path-effect="#path-effect939"
         inkscape:original-d="m 101.6582,87.546506 c -0.89063,-0.556548 -1.781528,-1.113358 -2.67269,-1.670436 -0.465338,-0.245385 -0.930923,-0.491024 -1.396783,-0.736933 -0.24385,-0.12573 -0.487955,-0.25172 -0.732329,-0.377976 -0.196602,0.03964 -0.39346,0.07901 -0.590587,0.118118 -0.157229,0.433369 -0.314717,0.86646 -0.472472,1.299292 -0.235974,0.811355 -0.472205,1.622412 -0.708705,2.433222 -0.165103,1.071222 -0.330465,2.142132 -0.496094,3.212802 -0.0076,1.04759 -0.01548,2.09488 -0.02363,3.14193 0.04751,0.69323 0.09476,1.38617 0.14174,2.07886 0.173508,0.89798 0.346741,1.79565 0.519718,2.69308 0.378248,0.393995 0.756216,0.787715 1.133928,1.181175 1.4807,-0.0312 2.961079,-0.0627 4.441224,-0.0945 1.3547,-0.858075 2.70909,-1.716375 4.06324,-2.574965 0.47274,-0.77145 0.9452,-1.54313 1.41741,-2.3151 0.0396,-0.37772 0.079,-0.75569 0.11812,-1.13393 -0.62184,-0.63758 -1.24391,-1.2754 -1.86626,-1.9135 -0.44859,-0.62971 -0.89743,-1.25966 -1.34654,-1.88988 -0.3541,-0.77146 -0.70844,-1.543147 -1.06306,-2.315111 -0.15515,-0.378462 -0.31056,-0.757174 -0.46623,-1.136158 z"
         transform="rotate(-15.220755,99.90714,102.10794)"
         inkscape:export-xdpi="96"
         inkscape:export-ydpi="96" />
      <path
         style="opacity:1;fill:#ffffff;fill-opacity:1;stroke:none;stroke-width:0.264583px;stroke-linecap:butt;stroke-linejoin:miter;stroke-opacity:1;filter:url(#filter2920)"
         d="m 88.007389,110.42123 c -0.930961,1.42854 -0.505736,2.24749 0.01402,3.04281 0.519758,0.79532 1.133954,1.56701 1.63571,1.59076 0.501756,0.0238 0.891317,-0.70022 1.504981,-1.7948 0.613663,-1.09458 1.451357,-2.55964 2.03138,-3.84554 0.580024,-1.2859 0.902363,-2.39277 1.224658,-3.49948 -0.301742,-0.33264 -0.603226,-0.665 -1.897886,0.18746 -1.294659,0.85246 -3.581905,2.89024 -4.512865,4.31879 z"
         id="path2504"
         inkscape:path-effect="#path-effect2506"
         inkscape:original-d="m 86.651041,111.03051 c 0.425487,0.81921 0.850712,1.63816 1.27567,2.45684 0.614486,0.77199 1.228688,1.54367 1.842635,2.31511 0.389848,-0.72374 0.779407,-1.44771 1.168725,-2.17198 0.838009,-1.46488 1.675703,-2.92994 2.513184,-4.39536 0.322566,-1.10647 0.966885,-3.32014 0.966885,-3.32014 0,0 -0.603212,-0.66501 -0.905225,-0.99792 -2.287073,2.03812 -4.574315,4.0759 -6.861874,6.11345 z"
         sodipodi:nodetypes="cccccccc"
         inkscape:export-xdpi="96"
         inkscape:export-ydpi="96" />
    </g>
    <path
       style="fill:none;stroke:#000000;stroke-width:0.665;stroke-linecap:butt;stroke-linejoin:miter;stroke-miterlimit:4;stroke-dasharray:none;stroke-opacity:1"
       d="m 123.23261,222.22265 -1.1999,-3.61273 1.33472,-2.27967 -1.59458,-3.99237 1.65364,-2.4096 -1.48827,-0.85044 -0.86226,-2.59859 -0.92132,-1.19299 1.34924,-0.3592 1.36223,7e-4 c 0.36574,0.11665 0.49618,0.0209 0.87964,-0.006 l -2.56349,-4.50182 1.2993,-0.60239 -2.95294,-3.7207 3.17736,-5.38617 -2.05525,-3.47265 2.44504,-4.96094 -3.77976,-3.49628 1.83082,-6.49646 -3.36635,0.37797 3.06532,-6.44956"
       id="path1469"
       sodipodi:nodetypes="ccccccccccccccccccccc" />
  </g>
</svg>
